<?xml version="1.0" encoding="UTF-8" standalone="no"?>
<!-- Created with Inkscape (http://www.inkscape.org/) -->

<svg
	width="2500"
	height="500"
	viewBox="0 0 661.45835 132.29167"
	version="1.1"
	id="svg725"
	inkscape:version="1.2.2 (732a01da63, 2022-12-09)"
	sodipodi:docname="toocrowdedhackplace2.svg"
	xmlns:inkscape="http://www.inkscape.org/namespaces/inkscape"
	xmlns:sodipodi="http://sodipodi.sourceforge.net/DTD/sodipodi-0.dtd"
	xmlns="http://www.w3.org/2000/svg"
	xmlns:svg="http://www.w3.org/2000/svg">
	<sodipodi:namedview
		id="namedview727"
		pagecolor="#ffffff"
		bordercolor="#000000"
		borderopacity="0.25"
		inkscape:showpageshadow="2"
		inkscape:pageopacity="0.0"
		inkscape:pagecheckerboard="0"
		inkscape:deskcolor="#d1d1d1"
		inkscape:document-units="mm"
		showgrid="false"
		inkscape:zoom="0.5"
		inkscape:cx="1110"
		inkscape:cy="326"
		inkscape:window-width="1920"
		inkscape:window-height="1046"
		inkscape:window-x="-11"
		inkscape:window-y="-11"
		inkscape:window-maximized="1"
		inkscape:current-layer="layer1" />
	<defs
		id="defs722" />
	<g
		inkscape:label="Layer 1"
		inkscape:groupmode="layer"
		id="layer1">
		<path
			id="text121"
			style="font-style:normal;font-variant:normal;font-weight:normal;font-stretch:normal;font-size:105.833px;font-family:Satoshi;-inkscape-font-specification:Satoshi;white-space:pre;inline-size:71.3551;fill:#000000;stroke-width:0.264583"
			d="m 24.348221,25.30029 v 72.965542 h 0.004 l 16.25121,-4.091712 0.0429,0.0109 V 69.26768 c 0,-0.60871 0.0358,-1.19713 0.10542,-1.76424 V 42.96381 h 5.1e-4 V 25.30029 Z m 32.59698,18.35546 c -5.54805,0 -10.54514,1.72159 -13.99243,4.77491 V 62.0443 c 1.84148,-2.27299 4.70191,-3.57188 8.27702,-3.57188 5.60912,0 9.31364,4.33963 9.31364,11.00708 v 24.70547 l 0.0491,-0.0124 16.24914,4.093272 V 65.56346 c 0,-13.86407 -7.30238,-21.90771 -19.89646,-21.90771 z" />
		<rect
			style="fill:#000000;stroke-width:0.277122"
			id="rect753"
			width="3.1805072"
			height="32.736172"
			x="30.924767"
			y="87.734741" />
		<rect
			style="fill:#000000;stroke-width:0.151742"
			id="rect753-8"
			width="3.1805072"
			height="9.8151722"
			x="30.985313"
			y="20.187487" />
		<rect
			style="fill:#000000;stroke-width:0.21817"
			id="rect753-2"
			width="3.1805072"
			height="20.289495"
			x="67.100945"
			y="87.434509" />
		<rect
			style="fill:#000000;stroke-width:0.166376"
			id="rect753-2-6"
			width="3.1805072"
			height="11.799547"
			x="104.54491"
			y="-78.89344"
			transform="rotate(89.997872)" />
		<path
			id="path821"
			style="fill:#000000;stroke-width:0.264583"
			d="m 32.641781,7.5334215 a 7.1437497,6.9783854 0 0 0 -7.14375,6.9783785 7.1437497,6.9783854 0 0 0 7.14375,6.97839 7.1437497,6.9783854 0 0 0 7.14375,-6.97839 7.1437497,6.9783854 0 0 0 -7.14375,-6.9783785 z m 10e-4,2.0014188 a 5.1559324,4.9905686 0 0 1 5.15627,4.9909097 5.1559324,4.9905686 0 0 1 -5.15627,4.9904 5.1559324,4.9905686 0 0 1 -5.15576,-4.9904 5.1559324,4.9905686 0 0 1 5.15576,-4.9909097 z" />
		<ellipse
			style="fill:#000000;stroke-width:0.264583"
			id="path821-4"
			cx="32.44326"
			cy="117.70198"
			rx="7.1437497"
			ry="6.9783854" />
		<ellipse
			style="fill:#000000;stroke-width:0.264583"
			id="path821-4-9"
			cx="83.110985"
			cy="105.75991"
			rx="7.1437497"
			ry="6.9783854" />
		<path
			id="text121-9"
			style="font-style:normal;font-variant:normal;font-weight:normal;font-stretch:normal;font-size:105.833px;font-family:Satoshi;-inkscape-font-specification:Satoshi;white-space:pre;inline-size:71.3551;fill:#000000;fill-opacity:1;stroke-width:0.264583"
			d="M 24.347804,25.299289 V 98.26483 h 0.004 l 16.25121,-4.091711 0.0429,0.0109 v -24.91734 c 0,-0.60871 0.0358,-1.19713 0.10542,-1.76424 v -24.53963 h 5.1e-4 v -17.66352 z m 32.59698,18.35546 c -5.54805,0 -10.54514,1.72159 -13.99243,4.77491 v 13.61364 c 1.84148,-2.27299 4.70191,-3.57188 8.27702,-3.57188 5.60912,0 9.31364,4.33963 9.31364,11.00708 v 24.70547 l 0.0491,-0.0124 16.24914,4.093271 V 65.562459 c 0,-13.86407 -7.30238,-21.90771 -19.89646,-21.90771 z" />
		<rect
			style="fill:#000000;fill-opacity:1;stroke-width:0.277122"
			id="rect753-5"
			width="3.1805072"
			height="32.736172"
			x="30.924349"
			y="87.733742" />
		<rect
			style="fill:#000000;fill-opacity:1;stroke-width:0.151742"
			id="rect753-8-3"
			width="3.1805072"
			height="9.8151722"
			x="30.984896"
			y="20.186483" />
		<rect
			style="fill:#000000;fill-opacity:1;stroke-width:0.21817"
			id="rect753-2-4"
			width="3.1805072"
			height="20.289495"
			x="67.100525"
			y="87.43351" />
		<rect
			style="fill:#000000;fill-opacity:1;stroke-width:0.166376"
			id="rect753-2-6-0"
			width="3.1805072"
			height="11.799547"
			x="104.54392"
			y="-78.893021"
			transform="rotate(89.997872)" />
		<path
			id="path821-95"
			style="fill:#000000;fill-opacity:1;stroke-width:0.264583"
			d="m 32.641364,7.5324186 a 7.1437497,6.9783854 0 0 0 -7.14375,6.9783804 7.1437497,6.9783854 0 0 0 7.14375,6.97839 7.1437497,6.9783854 0 0 0 7.14375,-6.97839 7.1437497,6.9783854 0 0 0 -7.14375,-6.9783804 z m 10e-4,2.00142 a 5.1559324,4.9905686 0 0 1 5.15627,4.9909104 5.1559324,4.9905686 0 0 1 -5.15627,4.9904 5.1559324,4.9905686 0 0 1 -5.15576,-4.9904 5.1559324,4.9905686 0 0 1 5.15576,-4.9909104 z" />
		<path
			id="path821-6"
			style="fill:#000000;fill-opacity:1;stroke-width:0.264583"
			d="m 345.1155,24.671389 a 7.1437497,6.9783854 0 0 0 -7.14375,6.97838 7.1437497,6.9783854 0 0 0 7.14375,6.97839 7.1437497,6.9783854 0 0 0 7.14375,-6.97839 7.1437497,6.9783854 0 0 0 -7.14375,-6.97838 z m 10e-4,2.00142 a 5.1559324,4.9905686 0 0 1 5.15627,4.99091 5.1559324,4.9905686 0 0 1 -5.15627,4.9904 5.1559324,4.9905686 0 0 1 -5.15576,-4.9904 5.1559324,4.9905686 0 0 1 5.15576,-4.99091 z" />
		<ellipse
			style="fill:#000000;fill-opacity:1;stroke-width:0.264583"
			id="path821-4-78"
			cx="32.442844"
			cy="117.70098"
			rx="7.1437497"
			ry="6.9783854" />
		<ellipse
			style="fill:#000000;fill-opacity:1;stroke-width:0.264583"
			id="path821-4-9-1"
			cx="83.110565"
			cy="105.75891"
			rx="7.1437497"
			ry="6.9783854" />
		<ellipse
			style="fill:#000000;fill-opacity:1;stroke-width:0.264583"
			id="path821-4-9-0"
			cx="108.88522"
			cy="113.14712"
			rx="7.1437497"
			ry="6.9783854" />
		<path
			style="font-style:normal;font-variant:normal;font-weight:normal;font-stretch:normal;font-size:105.833px;font-family:Satoshi;-inkscape-font-specification:Satoshi;fill:#000000;fill-opacity:1;stroke-width:0.264583"
			d="m 279.22494,80.392539 c -5.36805,0.0337 -9.67331,4.35999 -9.67331,9.63094 0,5.18578 4.3394,9.524981 9.73688,9.524981 5.18576,0 9.73635,-4.339201 9.73635,-9.524981 0,-5.29162 -4.55059,-9.63094 -9.73635,-9.63094 -0.0211,0 -0.0425,-1.3e-4 -0.0636,0 z"
			id="path14049" />
		<path
			style="font-style:normal;font-variant:normal;font-weight:normal;font-stretch:normal;font-size:105.833px;font-family:Satoshi;-inkscape-font-specification:Satoshi;fill:#000000;fill-opacity:1;stroke-width:0.264583"
			d="m 542.17737,43.562749 c -15.98072,0 -27.09344,11.53598 -27.09344,28.04583 0,16.29818 11.43007,27.939881 27.41073,27.939881 14.49906,0 24.97657,-7.514461 26.88157,-19.261861 h -14.92209 c -1.16416,3.80997 -5.50336,6.03271 -11.64167,6.03271 -7.19658,0 -11.11245,-3.2811 -12.06489,-10.26604 l 38.41729,-0.21187 v -4.1274 c 0,-17.25067 -10.37184,-28.15125 -26.9875,-28.15125 z m 0.10594,13.22916 c 6.56158,0 10.68927,3.59807 10.68927,9.20719 h -22.01365 c 1.27,-6.34994 4.86857,-9.20719 11.32438,-9.20719 z"
			id="path14047" />
		<path
			style="font-style:normal;font-variant:normal;font-weight:normal;font-stretch:normal;font-size:105.833px;font-family:Satoshi;-inkscape-font-specification:Satoshi;fill:#000000;fill-opacity:1;stroke-width:0.264583"
			d="m 481.95831,43.562749 c -15.87489,0 -27.09292,11.64171 -27.09292,27.93989 0,16.93318 10.7946,28.045821 27.51615,28.045821 14.8165,0 25.61187,-9.101981 26.6702,-22.436861 h -16.40416 c -1.05833,5.18579 -4.55112,7.83157 -10.26604,7.83157 -6.98498,0 -11.1125,-4.97394 -11.1125,-13.44053 0,-8.14909 4.44528,-13.3351 11.32437,-13.3351 5.60909,0 8.89,2.53994 10.05417,7.83156 h 16.40416 c -1.05833,-13.86404 -11.43027,-22.43635 -27.09343,-22.43635 z"
			id="path14045" />
		<path
			style="font-style:normal;font-variant:normal;font-weight:normal;font-stretch:normal;font-size:105.833px;font-family:Satoshi;-inkscape-font-specification:Satoshi;fill:#000000;fill-opacity:1;stroke-width:0.264583"
			d="m 421.8798,43.562749 c -15.03364,0.0609 -24.79952,7.87818 -24.79952,19.79052 h 13.54698 c 0,-4.76246 3.70424,-7.40833 10.58333,-7.40833 5.82081,0 8.99532,2.75171 8.99532,7.9375 v 0.84697 l -14.81615,1.16376 c -12.6999,0.95249 -19.57917,6.9854 -19.57917,16.72197 0,10.37157 6.98479,16.933321 18.20303,16.933321 7.93741,0 14.92271,-3.492941 16.61604,-8.361231 l 0.48627,3.20962 14.96498,3.773931 V 67.269309 c 0,-15.13402 -8.67814,-23.70656 -24.02386,-23.70656 -0.0591,0 -0.11829,-2.4e-4 -0.17725,0 z m 8.43205,31.96135 v 2.85771 c 0,6.03244 -4.3392,9.10125 -10.58334,9.10125 -4.97409,0 -7.30239,-1.79899 -7.30239,-5.60896 0,-3.38663 2.54018,-4.97396 9.63093,-5.60896 z"
			id="path14043" />
		<path
			style="font-style:normal;font-variant:normal;font-weight:normal;font-stretch:normal;font-size:105.833px;font-family:Satoshi;-inkscape-font-specification:Satoshi;fill:#000000;fill-opacity:1;stroke-width:0.264583"
			d="m 335.06236,43.562749 c -7.51408,0 -14.18193,3.28057 -17.1452,8.14885 l -0.84646,-6.45593 h -15.34584 v 78.316651 h 0.0119 l 16.24345,-4.09536 0.0429,0.0109 V 92.880669 c 3.06916,4.021651 9.84279,6.773211 17.14521,6.773211 15.769,0 24.87083,-12.064821 24.87083,-28.786341 0,-17.03901 -10.26605,-27.30479 -24.97677,-27.30479 z m -4.11086,14.92208 c 0.0297,-1.6e-4 0.0596,0 0.0894,0 7.72575,0 12.59407,5.39758 12.59407,13.22917 0,7.8316 -4.86832,13.22917 -12.59407,13.22917 -7.61992,0 -12.91187,-5.29174 -12.91187,-13.22917 0,-7.90642 5.25048,-13.18803 12.82247,-13.22917 z"
			id="path14041" />
		<path
			style="font-style:normal;font-variant:normal;font-weight:normal;font-stretch:normal;font-size:105.833px;font-family:Satoshi;-inkscape-font-specification:Satoshi;fill:#000000;fill-opacity:1;stroke-width:0.264583"
			d="m 172.60871,43.562749 c -15.87483,0 -27.09343,11.64171 -27.09343,27.93989 0,16.93318 10.79517,28.045821 27.51666,28.045821 14.81656,0 25.61136,-9.101981 26.66969,-22.436861 h -16.40416 c -1.05833,5.18579 -4.55055,7.83157 -10.26553,7.83157 -6.98492,0 -11.1125,-4.97394 -11.1125,-13.44053 0,-8.14909 4.44477,-13.3351 11.32386,-13.3351 5.60909,0 8.89,2.53994 10.05417,7.83156 h 16.40416 c -1.05833,-13.86404 -11.4297,-22.43635 -27.09292,-22.43635 z"
			id="path14039" />
		<path
			style="font-style:normal;font-variant:normal;font-weight:normal;font-stretch:normal;font-size:105.833px;font-family:Satoshi;-inkscape-font-specification:Satoshi;fill:#000000;fill-opacity:1;stroke-width:0.264583"
			d="m 112.53021,43.562749 c -15.033693,0.0609 -24.799543,7.87818 -24.799543,19.79052 h 13.546473 c 0,-4.76246 3.70425,-7.40833 10.58334,-7.40833 5.82081,0 8.99584,2.75171 8.99584,7.9375 v 0.84697 l -14.81667,1.16376 c -12.699913,0.95249 -19.579193,6.9854 -19.579193,16.72197 0,10.37157 6.98532,16.933321 18.203563,16.933321 7.93742,0 14.9222,-3.492941 16.61553,-8.361231 l 0.48317,3.18792 14.9686,3.774951 V 67.269309 c 0,-15.13402 -8.67866,-23.70656 -24.02438,-23.70656 -0.0591,0 -0.11778,-2.4e-4 -0.17673,0 z m 8.43204,31.96135 v 2.85771 c 0,6.03244 -4.33924,9.10125 -10.58333,9.10125 -4.97415,0 -7.3024,-1.79899 -7.3024,-5.60896 0,-3.38663 2.53967,-4.97396 9.63042,-5.60896 z"
			id="path14037" />
		<path
			style="font-style:normal;font-variant:normal;font-weight:normal;font-stretch:normal;font-size:105.833px;font-family:Satoshi;-inkscape-font-specification:Satoshi;fill:#000000;fill-opacity:1;stroke-width:0.264583"
			d="m 369.4582,18.374099 v 75.71425 l 0.0527,-0.0135 16.24552,4.096911 V 18.374049 Z"
			id="path14035" />
		<path
			style="font-style:normal;font-variant:normal;font-weight:normal;font-stretch:normal;font-size:105.833px;font-family:Satoshi;-inkscape-font-specification:Satoshi;fill:#000000;fill-opacity:1;stroke-width:0.264583"
			d="m 596.25831,14.352639 c -13.12323,13.65238 -19.36781,33.97237 -19.36781,53.12803 0,21.69563 7.72624,41.063621 19.36781,53.128521 h 12.48812 C 598.26903,106.53346 593.4006,86.318829 593.4006,67.480669 c 0,-21.37814 6.13842,-40.74564 15.34583,-53.12803 z m 12.48812,0 c 9.20741,12.38239 15.34584,31.74989 15.34584,53.12803 0,18.83816 -4.86843,39.052791 -15.34584,53.128521 h 12.48813 c 11.64157,-12.0649 19.36781,-31.432891 19.36781,-53.128521 0,-19.15566 -6.24458,-39.47565 -19.36781,-53.12803 z"
			id="text1080" />
		<rect
			style="fill:#000000;fill-opacity:1;stroke-width:0.21817"
			id="rect753-2-2"
			width="3.1805072"
			height="20.289495"
			x="-114.44285"
			y="109.64323"
			transform="rotate(-90.000903)" />
		<rect
			style="fill:#000000;fill-opacity:1;stroke-width:0.247696"
			id="rect753-2-6-8"
			width="3.1805072"
			height="26.152988"
			x="126.75022"
			y="88.305901"
			transform="matrix(0.99999999,-1.172676e-4,2.387075e-5,1,0,0)" />
		<ellipse
			style="fill:#000000;fill-opacity:1;stroke-width:0.264583"
			id="path821-4-9-0-1"
			cx="339.5752"
			cy="110.38232"
			rx="7.1437497"
			ry="6.9783854" />
		<rect
			style="fill:#000000;fill-opacity:1;stroke-width:0.294452"
			id="rect753-2-2-0"
			width="3.1805072"
			height="36.958202"
			x="-111.67919"
			y="341.12601"
			transform="matrix(-2.8708119e-5,-1,1,-8.6521792e-6,0,0)" />
		<rect
			style="fill:#000000;fill-opacity:1;stroke-width:0.247696"
			id="rect753-2-6-8-9"
			width="3.1805072"
			height="26.152988"
			x="376.49084"
			y="85.570457"
			transform="matrix(0.99999999,-1.172676e-4,2.387075e-5,1,0,0)" />
		<rect
			style="fill:#000000;fill-opacity:1;stroke-width:0.247696"
			id="rect753-2-6-8-5"
			width="3.1805072"
			height="26.152988"
			x="436.50089"
			y="89.469551"
			transform="matrix(0.99999999,-1.172676e-4,2.387075e-5,1,0,0)" />
		<rect
			style="fill:#000000;fill-opacity:1;stroke-width:0.271417"
			id="rect753-2-2-5-0"
			width="3.1805072"
			height="31.401842"
			x="30.096149"
			y="-339.30829"
			transform="matrix(-1.3657409e-4,0.99999999,-1,-5.7016501e-5,0,0)" />
		<rect
			style="fill:#000000;fill-opacity:1;stroke-width:0.247696"
			id="rect753-2-6-8-5-0"
			width="3.1805072"
			height="26.152988"
			x="-311.086"
			y="-56.267963"
			transform="matrix(-1,1.3263543e-5,8.0133309e-5,-1,0,0)" />
		<ellipse
			style="fill:#000000;fill-opacity:1;stroke-width:0.264583"
			id="path821-4-9-0-6"
			cx="417.7099"
			cy="113.64384"
			rx="7.1437497"
			ry="6.9783854" />
		<rect
			style="fill:#000000;fill-opacity:1;stroke-width:0.21817"
			id="rect753-2-2-6"
			width="3.1805072"
			height="20.289495"
			x="-115.5796"
			y="419.39291"
			transform="rotate(-90.000903)" />
		<path
			id="text121-4"
			style="font-style:normal;font-variant:normal;font-weight:normal;font-stretch:normal;font-size:105.833px;font-family:Satoshi;-inkscape-font-specification:Satoshi;white-space:pre;inline-size:71.3551;fill:#000000;fill-opacity:1;stroke-width:0.264583"
			d="M 24.34781,25.299199 V 98.26474 h 0.004 l 16.25121,-4.091711 0.0429,0.0109 v -24.91734 c 0,-0.60871 0.0358,-1.19713 0.10542,-1.76424 v -24.53963 h 5.1e-4 v -17.66352 z m 32.59698,18.35546 c -5.54805,0 -10.54514,1.72159 -13.99243,4.77491 v 13.61364 c 1.84148,-2.27299 4.70191,-3.57188 8.27702,-3.57188 5.60912,0 9.31364,4.33963 9.31364,11.00708 v 24.70547 l 0.0491,-0.0124 16.24914,4.093271 V 65.562369 c 0,-13.86407 -7.30238,-21.90771 -19.89646,-21.90771 z" />
		<rect
			style="fill:#000000;fill-opacity:1;stroke-width:0.277122"
			id="rect753-82"
			width="3.1805072"
			height="32.736172"
			x="30.924349"
			y="87.73365" />
		<rect
			style="fill:#000000;fill-opacity:1;stroke-width:0.151742"
			id="rect753-8-15"
			width="3.1805072"
			height="9.8151722"
			x="30.984896"
			y="20.186392" />
		<rect
			style="fill:#000000;fill-opacity:1;stroke-width:0.21817"
			id="rect753-2-7"
			width="3.1805072"
			height="20.289495"
			x="67.100533"
			y="87.433418" />
		<rect
			style="fill:#000000;fill-opacity:1;stroke-width:0.166376"
			id="rect753-2-6-9"
			width="3.1805072"
			height="11.799547"
			x="104.54383"
			y="-78.893028"
			transform="rotate(89.997872)" />
		<path
			id="path821-96"
			style="fill:#000000;fill-opacity:1;stroke-width:0.264583"
			d="m 32.64137,7.5323286 a 7.1437497,6.9783854 0 0 0 -7.14375,6.9783804 7.1437497,6.9783854 0 0 0 7.14375,6.97839 7.1437497,6.9783854 0 0 0 7.14375,-6.97839 7.1437497,6.9783854 0 0 0 -7.14375,-6.9783804 z m 10e-4,2.00142 a 5.1559324,4.9905686 0 0 1 5.15627,4.9909104 5.1559324,4.9905686 0 0 1 -5.15627,4.9904 5.1559324,4.9905686 0 0 1 -5.15576,-4.9904 5.1559324,4.9905686 0 0 1 5.15576,-4.9909104 z" />
		<rect
			style="fill:#000000;fill-opacity:1;stroke-width:0.151742"
			id="rect753-8-1"
			width="3.1805072"
			height="9.8151722"
			x="215.13443"
			y="20.179953" />
		<path
			id="path821-9"
			style="fill:#000000;fill-opacity:1;stroke-width:0.264583"
			d="m 216.79282,7.5258786 a 7.1437497,6.9783854 0 0 0 -7.14379,6.9783804 7.1437497,6.9783854 0 0 0 7.14379,6.97839 7.1437497,6.9783854 0 0 0 7.14379,-6.97839 7.1437497,6.9783854 0 0 0 -7.14379,-6.9783804 z m 0.001,2.00142 a 5.1559324,4.9905686 0 0 1 5.1563,4.9909104 5.1559324,4.9905686 0 0 1 -5.1563,4.9904 5.1559324,4.9905686 0 0 1 -5.15579,-4.9904 5.1559324,4.9905686 0 0 1 5.15579,-4.9909104 z" />
		<path
			id="path821-9-3"
			style="fill:#000000;fill-opacity:1;stroke-width:0.264583"
			d="m 173.33426,64.804109 a 7.1437497,6.9783854 0 0 0 -7.14379,6.97838 7.1437497,6.9783854 0 0 0 7.14379,6.97839 7.1437497,6.9783854 0 0 0 7.14379,-6.97839 7.1437497,6.9783854 0 0 0 -7.14379,-6.97838 z m 0.001,2.00142 a 5.1559324,4.9905686 0 0 1 5.1563,4.99091 5.1559324,4.9905686 0 0 1 -5.1563,4.9904 5.1559324,4.9905686 0 0 1 -5.15579,-4.9904 5.1559324,4.9905686 0 0 1 5.15579,-4.99091 z" />
		<path
			id="path821-6-3"
			style="fill:#000000;fill-opacity:1;stroke-width:0.264583"
			d="m 345.11551,24.671309 a 7.1437497,6.9783854 0 0 0 -7.14375,6.97838 7.1437497,6.9783854 0 0 0 7.14375,6.97839 7.1437497,6.9783854 0 0 0 7.14375,-6.97839 7.1437497,6.9783854 0 0 0 -7.14375,-6.97838 z m 0.001,2.00142 a 5.1559324,4.9905686 0 0 1 5.15627,4.99091 5.1559324,4.9905686 0 0 1 -5.15627,4.9904 5.1559324,4.9905686 0 0 1 -5.15576,-4.9904 5.1559324,4.9905686 0 0 1 5.15576,-4.99091 z" />
		<ellipse
			style="fill:#000000;fill-opacity:1;stroke-width:0.264583"
			id="path821-4-7"
			cx="32.442844"
			cy="117.70089"
			rx="7.1437497"
			ry="6.9783854" />
		<ellipse
			style="fill:#000000;fill-opacity:1;stroke-width:0.264583"
			id="path821-4-9-09"
			cx="83.110588"
			cy="105.75883"
			rx="7.1437497"
			ry="6.9783854" />
		<ellipse
			style="fill:#000000;fill-opacity:1;stroke-width:0.264583"
			id="path821-4-9-0-9"
			cx="108.88522"
			cy="113.14703"
			rx="7.1437497"
			ry="6.9783854" />
		<path
			style="font-style:normal;font-variant:normal;font-weight:normal;font-stretch:normal;font-size:105.833px;font-family:Satoshi;-inkscape-font-specification:Satoshi;fill:#000000;fill-opacity:1;stroke-width:0.264583"
			d="m 279.22495,80.392449 c -5.36805,0.0337 -9.67332,4.35999 -9.67332,9.63094 0,5.18578 4.33941,9.524981 9.73689,9.524981 5.18576,0 9.73635,-4.339201 9.73635,-9.524981 0,-5.29162 -4.55059,-9.63094 -9.73635,-9.63094 -0.0211,0 -0.0425,-1.3e-4 -0.0636,0 z"
			id="path1683" />
		<path
			style="font-style:normal;font-variant:normal;font-weight:normal;font-stretch:normal;font-size:105.833px;font-family:Satoshi;-inkscape-font-specification:Satoshi;fill:#000000;fill-opacity:1;stroke-width:0.264583"
			d="m 542.17738,43.562659 c -15.98072,0 -27.09344,11.53598 -27.09344,28.04583 0,16.29818 11.43007,27.939881 27.41073,27.939881 14.49906,0 24.97657,-7.514471 26.88157,-19.261861 h -14.92209 c -1.16416,3.80997 -5.50336,6.03271 -11.64167,6.03271 -7.19658,0 -11.11245,-3.28111 -12.06489,-10.26604 l 38.41729,-0.21187 v -4.1274 c 0,-17.25067 -10.37184,-28.15125 -26.9875,-28.15125 z m 0.10594,13.22917 c 6.56158,0 10.68927,3.59807 10.68927,9.20718 h -22.01365 c 1.27,-6.34994 4.86857,-9.20718 11.32438,-9.20718 z"
			id="path1681" />
		<path
			style="font-style:normal;font-variant:normal;font-weight:normal;font-stretch:normal;font-size:105.833px;font-family:Satoshi;-inkscape-font-specification:Satoshi;fill:#000000;fill-opacity:1;stroke-width:0.264583"
			d="m 481.95832,43.562659 c -15.87489,0 -27.09292,11.64171 -27.09292,27.93989 0,16.93318 10.7946,28.045821 27.51615,28.045821 14.8165,0 25.61187,-9.101981 26.6702,-22.436861 h -16.40416 c -1.05833,5.18579 -4.55112,7.83157 -10.26604,7.83157 -6.98498,0 -11.1125,-4.97394 -11.1125,-13.44053 0,-8.14909 4.44528,-13.3351 11.32437,-13.3351 5.60909,0 8.89,2.53994 10.05417,7.83156 h 16.40416 c -1.05833,-13.86403 -11.43027,-22.43635 -27.09343,-22.43635 z"
			id="path1679" />
		<path
			style="font-style:normal;font-variant:normal;font-weight:normal;font-stretch:normal;font-size:105.833px;font-family:Satoshi;-inkscape-font-specification:Satoshi;fill:#000000;fill-opacity:1;stroke-width:0.264583"
			d="m 421.87981,43.562659 c -15.03364,0.0609 -24.79952,7.87818 -24.79952,19.79052 h 13.54698 c 0,-4.76245 3.70424,-7.40833 10.58333,-7.40833 5.82081,0 8.99532,2.75171 8.99532,7.9375 v 0.84697 l -14.81615,1.16376 c -12.6999,0.95249 -19.57917,6.9854 -19.57917,16.72197 0,10.37157 6.98479,16.933321 18.20303,16.933321 7.93741,0 14.92271,-3.492941 16.61604,-8.361231 l 0.48627,3.20962 14.96498,3.773931 V 67.269219 c 0,-15.13402 -8.67814,-23.70656 -24.02386,-23.70656 -0.0591,0 -0.11829,-2.4e-4 -0.17725,0 z m 8.43205,31.96135 v 2.85771 c 0,6.03244 -4.3392,9.10125 -10.58334,9.10125 -4.97409,0 -7.30239,-1.79899 -7.30239,-5.60896 0,-3.38664 2.54018,-4.97397 9.63093,-5.60896 z"
			id="path1677" />
		<path
			style="font-style:normal;font-variant:normal;font-weight:normal;font-stretch:normal;font-size:105.833px;font-family:Satoshi;-inkscape-font-specification:Satoshi;fill:#000000;fill-opacity:1;stroke-width:0.264583"
			d="m 335.06237,43.562659 c -7.51408,0 -14.18193,3.28057 -17.1452,8.14886 l -0.84646,-6.45594 h -15.34584 v 78.316651 h 0.0119 l 16.24345,-4.09536 0.0429,0.0109 V 92.880579 c 3.06916,4.021651 9.84279,6.773211 17.14521,6.773211 15.769,0 24.87083,-12.064821 24.87083,-28.786341 0,-17.039 -10.26605,-27.30479 -24.97677,-27.30479 z m -4.11086,14.92209 c 0.0297,-1.7e-4 0.0596,0 0.0894,0 7.72575,0 12.59407,5.39756 12.59407,13.22916 0,7.8316 -4.86832,13.22917 -12.59407,13.22917 -7.61992,0 -12.91187,-5.29174 -12.91187,-13.22917 0,-7.90642 5.25048,-13.18803 12.82247,-13.22916 z"
			id="path1675" />
		<path
			style="font-style:normal;font-variant:normal;font-weight:normal;font-stretch:normal;font-size:105.833px;font-family:Satoshi;-inkscape-font-specification:Satoshi;fill:#000000;fill-opacity:1;stroke-width:0.264583"
			d="m 172.60871,43.562659 c -15.87483,0 -27.09343,11.64171 -27.09343,27.93989 0,16.93318 10.79517,28.045821 27.51666,28.045821 14.81656,0 25.61136,-9.101981 26.66969,-22.436861 h -16.40416 c -1.05833,5.18579 -4.55055,7.83157 -10.26553,7.83157 -6.98492,0 -11.1125,-4.97394 -11.1125,-13.44053 0,-8.14909 4.44477,-13.3351 11.32386,-13.3351 5.60909,0 8.89,2.53994 10.05417,7.83156 h 16.40416 c -1.05833,-13.86403 -11.4297,-22.43635 -27.09292,-22.43635 z"
			id="path1673" />
		<path
			style="font-style:normal;font-variant:normal;font-weight:normal;font-stretch:normal;font-size:105.833px;font-family:Satoshi;-inkscape-font-specification:Satoshi;fill:#000000;fill-opacity:1;stroke-width:0.264583"
			d="m 112.53022,43.562659 c -15.033693,0.0609 -24.799553,7.87818 -24.799553,19.79052 h 13.546483 c 0,-4.76245 3.70425,-7.40833 10.58334,-7.40833 5.82081,0 8.99584,2.75171 8.99584,7.9375 v 0.84697 l -14.81667,1.16376 c -12.699923,0.95249 -19.579203,6.9854 -19.579203,16.72197 0,10.37157 6.98533,16.933321 18.203573,16.933321 7.93742,0 14.9222,-3.492941 16.61553,-8.361231 l 0.48317,3.18792 14.9686,3.774951 V 67.269219 c 0,-15.13402 -8.67866,-23.70656 -24.02438,-23.70656 -0.0591,0 -0.11778,-2.4e-4 -0.17673,0 z m 8.43204,31.96135 v 2.85771 c 0,6.03244 -4.33924,9.10125 -10.58333,9.10125 -4.97415,0 -7.3024,-1.79899 -7.3024,-5.60896 0,-3.38664 2.53967,-4.97397 9.63042,-5.60896 z"
			id="path1671" />
		<path
			style="font-style:normal;font-variant:normal;font-weight:normal;font-stretch:normal;font-size:105.833px;font-family:Satoshi;-inkscape-font-specification:Satoshi;fill:#000000;fill-opacity:1;stroke-width:0.264583"
			d="m 369.45821,18.374019 v 75.71423 l 0.0527,-0.0134 16.24552,4.096911 V 18.374059 Z"
			id="path1669" />
		<path
			id="path1667"
			style="font-style:normal;font-variant:normal;font-weight:normal;font-stretch:normal;font-size:105.833px;font-family:Satoshi;-inkscape-font-specification:Satoshi;fill:#000000;fill-opacity:1;stroke-width:0.264583"
			d="M 208.59151,25.327599 V 98.17224 h 0.004 l 16.25638,-4.098971 0.0382,0.01 v -9.14001 l 6.24406,-6.56136 9.42681,15.73909 0.19431,-0.0377 21.01835,4.089161 h 0.0522 L 242.56394,66.211089 262.4604,45.255779 h -20.42562 l -17.14469,19.05 v -38.97796 z" />
		<rect
			style="fill:#000000;fill-opacity:1;stroke-width:0.21817"
			id="rect753-2-2-66"
			width="3.1805072"
			height="20.289495"
			x="-114.44279"
			y="109.64323"
			transform="rotate(-90.000903)" />
		<rect
			style="fill:#000000;fill-opacity:1;stroke-width:0.247696"
			id="rect753-2-6-8-3"
			width="3.1805072"
			height="26.152988"
			x="126.75024"
			y="88.305809"
			transform="matrix(0.99999999,-1.172676e-4,2.387075e-5,1,0,0)" />
		<rect
			style="fill:#000000;fill-opacity:1;stroke-width:0.156639"
			id="rect753-2-6-8-1"
			width="3.1805072"
			height="10.458889"
			x="171.69659"
			y="55.68552"
			transform="matrix(1,-4.689677e-5,5.8905313e-5,1,0,0)" />
		<rect
			style="fill:#000000;fill-opacity:1;stroke-width:0.165826"
			id="rect753-2-6-8-1-7"
			width="3.1805072"
			height="11.72172"
			x="171.70375"
			y="77.49321"
			transform="rotate(-0.00301142)" />
		<path
			id="path821-9-3-5"
			style="fill:#000000;fill-opacity:1;stroke-width:0.264583"
			d="m 482.41834,64.828919 a 7.1437497,6.9783854 0 0 0 -7.14379,6.97838 7.1437497,6.9783854 0 0 0 7.14379,6.97839 7.1437497,6.9783854 0 0 0 7.14379,-6.97839 7.1437497,6.9783854 0 0 0 -7.14379,-6.97838 z m 10e-4,2.00142 a 5.1559324,4.9905686 0 0 1 5.1563,4.99091 5.1559324,4.9905686 0 0 1 -5.1563,4.9904 5.1559324,4.9905686 0 0 1 -5.15579,-4.9904 5.1559324,4.9905686 0 0 1 5.15579,-4.99091 z" />
		<rect
			style="fill:#000000;fill-opacity:1;stroke-width:0.156639"
			id="rect753-2-6-8-1-4"
			width="3.1805072"
			height="10.458889"
			x="480.78116"
			y="55.725895"
			transform="matrix(1,-4.689677e-5,5.8905313e-5,1,0,0)" />
		<rect
			style="fill:#000000;fill-opacity:1;stroke-width:0.165826"
			id="rect753-2-6-8-1-7-2"
			width="3.1805072"
			height="11.72172"
			x="480.78851"
			y="77.535812"
			transform="rotate(-0.00301142)" />
		<ellipse
			style="fill:#000000;fill-opacity:1;stroke-width:0.264583"
			id="path821-4-9-0-1-0"
			cx="339.5752"
			cy="110.38223"
			rx="7.1437497"
			ry="6.9783854" />
		<rect
			style="fill:#000000;fill-opacity:1;stroke-width:0.294452"
			id="rect753-2-2-0-1"
			width="3.1805072"
			height="36.958202"
			x="-111.67905"
			y="341.12601"
			transform="matrix(-2.8708119e-5,-1,1,-8.6521792e-6,0,0)" />
		<rect
			style="fill:#000000;fill-opacity:1;stroke-width:0.247696"
			id="rect753-2-6-8-9-4"
			width="3.1805072"
			height="26.152988"
			x="376.49084"
			y="85.570366"
			transform="matrix(0.99999999,-1.172676e-4,2.387075e-5,1,0,0)" />
		<rect
			style="fill:#000000;fill-opacity:1;stroke-width:0.247696"
			id="rect753-2-6-8-5-2"
			width="3.1805072"
			height="26.152988"
			x="436.50089"
			y="89.46946"
			transform="matrix(0.99999999,-1.172676e-4,2.387075e-5,1,0,0)" />
		<rect
			style="fill:#000000;fill-opacity:1;stroke-width:0.271417"
			id="rect753-2-2-5-0-8"
			width="3.1805072"
			height="31.401842"
			x="30.096058"
			y="-339.30832"
			transform="matrix(-1.3657409e-4,0.99999999,-1,-5.7016501e-5,0,0)" />
		<rect
			style="fill:#000000;fill-opacity:1;stroke-width:0.247696"
			id="rect753-2-6-8-5-0-1"
			width="3.1805072"
			height="26.152988"
			x="-311.086"
			y="-56.267872"
			transform="matrix(-1,1.3263543e-5,8.0133309e-5,-1,0,0)" />
		<ellipse
			style="fill:#000000;fill-opacity:1;stroke-width:0.264583"
			id="path821-4-9-0-6-7"
			cx="417.7099"
			cy="113.64373"
			rx="7.1437497"
			ry="6.9783854" />
		<rect
			style="fill:#000000;fill-opacity:1;stroke-width:0.21817"
			id="rect753-2-2-6-6"
			width="3.1805072"
			height="20.289495"
			x="-115.57951"
			y="419.39291"
			transform="rotate(-90.000903)" />
	</g>
</svg>
