<?xml version="1.0" encoding="UTF-8" standalone="no"?>
<!-- Created with Inkscape (http://www.inkscape.org/) -->

<svg
	width="2500"
	height="500"
	viewBox="0 0 661.45835 132.29167"
	version="1.1"
	id="svg725"
	inkscape:version="1.2.2 (732a01da63, 2022-12-09)"
	sodipodi:docname="toocrowdedhackplace2.svg"
	xmlns:inkscape="http://www.inkscape.org/namespaces/inkscape"
	xmlns:sodipodi="http://sodipodi.sourceforge.net/DTD/sodipodi-0.dtd"
	xmlns="http://www.w3.org/2000/svg"
	xmlns:svg="http://www.w3.org/2000/svg">
	<sodipodi:namedview
		id="namedview727"
		pagecolor="#ffffff"
		bordercolor="#000000"
		borderopacity="0.25"
		inkscape:showpageshadow="2"
		inkscape:pageopacity="0.0"
		inkscape:pagecheckerboard="0"
		inkscape:deskcolor="#d1d1d1"
		inkscape:document-units="mm"
		showgrid="false"
		inkscape:zoom="0.25"
		inkscape:cx="1468"
		inkscape:cy="568"
		inkscape:window-width="1920"
		inkscape:window-height="1046"
		inkscape:window-x="-11"
		inkscape:window-y="-11"
		inkscape:window-maximized="1"
		inkscape:current-layer="layer1" />
	<defs
		id="defs722" />
	<g
		inkscape:label="Layer 1"
		inkscape:groupmode="layer"
		id="layer1">
		<path
			id="text121"
			style="font-style:normal;font-variant:normal;font-weight:normal;font-stretch:normal;font-size:105.833px;font-family:Satoshi;-inkscape-font-specification:Satoshi;white-space:pre;inline-size:71.3551;fill:#000000;stroke-width:0.264583"
			d="m 24.348221,25.30029 v 72.965542 h 0.004 l 16.25121,-4.091712 0.0429,0.0109 V 69.26768 c 0,-0.60871 0.0358,-1.19713 0.10542,-1.76424 V 42.96381 h 5.1e-4 V 25.30029 Z m 32.59698,18.35546 c -5.54805,0 -10.54514,1.72159 -13.99243,4.77491 V 62.0443 c 1.84148,-2.27299 4.70191,-3.57188 8.27702,-3.57188 5.60912,0 9.31364,4.33963 9.31364,11.00708 v 24.70547 l 0.0491,-0.0124 16.24914,4.093272 V 65.56346 c 0,-13.86407 -7.30238,-21.90771 -19.89646,-21.90771 z" />
		<rect
			style="fill:#000000;stroke-width:0.277122"
			id="rect753"
			width="3.1805072"
			height="32.736172"
			x="30.924767"
			y="87.734741" />
		<rect
			style="fill:#000000;stroke-width:0.151742"
			id="rect753-8"
			width="3.1805072"
			height="9.8151722"
			x="30.985313"
			y="20.187487" />
		<rect
			style="fill:#000000;stroke-width:0.21817"
			id="rect753-2"
			width="3.1805072"
			height="20.289495"
			x="67.100945"
			y="87.434509" />
		<rect
			style="fill:#000000;stroke-width:0.166376"
			id="rect753-2-6"
			width="3.1805072"
			height="11.799547"
			x="104.54491"
			y="-78.89344"
			transform="rotate(89.997872)" />
		<path
			id="path821"
			style="fill:#000000;stroke-width:0.264583"
			d="m 32.641781,7.5334215 a 7.1437497,6.9783854 0 0 0 -7.14375,6.9783785 7.1437497,6.9783854 0 0 0 7.14375,6.97839 7.1437497,6.9783854 0 0 0 7.14375,-6.97839 7.1437497,6.9783854 0 0 0 -7.14375,-6.9783785 z m 10e-4,2.0014188 a 5.1559324,4.9905686 0 0 1 5.15627,4.9909097 5.1559324,4.9905686 0 0 1 -5.15627,4.9904 5.1559324,4.9905686 0 0 1 -5.15576,-4.9904 5.1559324,4.9905686 0 0 1 5.15576,-4.9909097 z" />
		<path
			id="path821-6"
			style="fill:#000000;stroke-width:0.264583"
			d="m 345.11591,24.672394 a 7.1437497,6.9783854 0 0 0 -7.14375,6.97838 7.1437497,6.9783854 0 0 0 7.14375,6.97839 7.1437497,6.9783854 0 0 0 7.14375,-6.97839 7.1437497,6.9783854 0 0 0 -7.14375,-6.97838 z m 0.001,2.00142 a 5.1559324,4.9905686 0 0 1 5.15627,4.99091 5.1559324,4.9905686 0 0 1 -5.15627,4.9904 5.1559324,4.9905686 0 0 1 -5.15576,-4.9904 5.1559324,4.9905686 0 0 1 5.15576,-4.99091 z" />
		<ellipse
			style="fill:#000000;stroke-width:0.264583"
			id="path821-4"
			cx="32.44326"
			cy="117.70198"
			rx="7.1437497"
			ry="6.9783854" />
		<ellipse
			style="fill:#000000;stroke-width:0.264583"
			id="path821-4-9"
			cx="83.110985"
			cy="105.75991"
			rx="7.1437497"
			ry="6.9783854" />
		<ellipse
			style="fill:#000000;stroke-width:0.264583"
			id="path821-4-9-0"
			cx="108.88562"
			cy="113.14812"
			rx="7.1437497"
			ry="6.9783854" />
		<path
			id="text1080"
			style="font-style:normal;font-variant:normal;font-weight:normal;font-stretch:normal;font-size:105.833px;font-family:Satoshi;-inkscape-font-specification:Satoshi;fill:#000000;stroke-width:0.264583"
			d="m 596.25872,14.353644 c -13.12323,13.652373 -19.36781,33.972364 -19.36781,53.128023 0,21.695633 7.72624,41.063623 19.36781,53.128523 h 12.48812 c -10.4774,-14.07573 -15.34583,-34.290363 -15.34583,-53.128523 0,-21.37814 6.13842,-40.74564 15.34583,-53.128023 z m 12.48812,0 c 9.20741,12.382383 15.34584,31.749883 15.34584,53.128023 0,18.83816 -4.86843,39.052793 -15.34584,53.128523 h 12.48813 c 11.64157,-12.0649 19.36781,-31.43289 19.36781,-53.128523 0,-19.155659 -6.24458,-39.47565 -19.36781,-53.128023 z m -400.1549,4.02146 v 79.798228 h 0.004 l 16.25638,-4.098973 0.0382,0.0098 v -9.140011 l 6.24406,-6.561357 9.42681,15.739091 0.19431,-0.03772 21.01835,4.08915 h 0.0522 l -19.26188,-31.961351 19.89646,-20.95531 h -20.42562 l -17.14469,19.05 V 18.375104 Z m 160.86667,0 v 75.714241 l 0.0527,-0.01344 16.24552,4.096907 V 18.375104 Z M 112.53062,43.563747 C 97.496935,43.624637 87.731081,51.441929 87.731081,63.35427 h 13.546469 c 0,-4.762455 3.70425,-7.408333 10.58334,-7.408333 5.82081,0 8.99584,2.751713 8.99584,7.9375 v 0.846977 l -14.81667,1.163753 c -12.699906,0.952491 -19.579186,6.985401 -19.579186,16.721977 0,10.371568 6.985324,16.933319 18.203556,16.933319 7.93742,0 14.9222,-3.492939 16.61553,-8.361233 l 0.48317,3.18792 14.9686,3.774952 V 67.27031 c 0,-15.134023 -8.67866,-23.706563 -24.02438,-23.706563 -0.0591,0 -0.11778,-2.39e-4 -0.17673,0 z m 60.0785,0 c -15.87483,0 -27.09343,11.641711 -27.09343,27.939897 0,16.933178 10.79517,28.045819 27.51666,28.045819 14.81656,0 25.61136,-9.101985 26.66969,-22.436859 h -16.40416 c -1.05833,5.185787 -4.55055,7.831563 -10.26553,7.831563 -6.98492,0 -11.1125,-4.973937 -11.1125,-13.440523 0,-8.149093 4.44477,-13.335104 11.32386,-13.335104 5.60909,0 8.89,2.539944 10.05417,7.831564 h 16.40416 C 198.64371,52.136065 188.27234,43.563747 172.60912,43.563747 Z m 162.45365,0 c -7.51408,0 -14.18193,3.280569 -17.1452,8.148857 l -0.84646,-6.455937 h -15.34584 v 78.316653 h 0.0119 l 16.24345,-4.09536 0.0429,0.0109 V 92.881667 c 3.06916,4.021651 9.84279,6.773216 17.14521,6.773216 15.769,0 24.87083,-12.064825 24.87083,-28.786343 0,-17.039006 -10.26605,-27.304793 -24.97677,-27.304793 z m 86.81744,0 c -15.03364,0.06089 -24.79952,7.878182 -24.79952,19.790523 h 13.54698 c 0,-4.762455 3.70424,-7.408333 10.58333,-7.408333 5.82081,0 8.99532,2.751713 8.99532,7.9375 v 0.846977 l -14.81615,1.163753 c -12.6999,0.952491 -19.57917,6.985401 -19.57917,16.721977 0,10.371568 6.98479,16.933319 18.20303,16.933319 7.93741,0 14.92271,-3.492939 16.61604,-8.361233 l 0.48627,3.209624 14.96498,3.773928 V 67.27031 c 0,-15.134023 -8.67814,-23.706563 -24.02386,-23.706563 -0.0591,0 -0.11829,-2.39e-4 -0.17725,0 z m 60.07851,0 c -15.87489,0 -27.09292,11.641711 -27.09292,27.939897 0,16.933178 10.7946,28.045819 27.51615,28.045819 14.8165,0 25.61187,-9.101985 26.6702,-22.436859 h -16.40416 c -1.05833,5.185787 -4.55112,7.831563 -10.26604,7.831563 -6.98498,0 -11.1125,-4.973937 -11.1125,-13.440523 0,-8.149093 4.44528,-13.335104 11.32437,-13.335104 5.60909,0 8.89,2.539944 10.05417,7.831564 h 16.40416 C 507.99382,52.136065 497.62188,43.563747 481.95872,43.563747 Z m 60.21906,0 c -15.98072,0 -27.09344,11.535982 -27.09344,28.045834 0,16.29818 11.43007,27.939882 27.41073,27.939882 14.49906,0 24.97657,-7.514468 26.88157,-19.261859 h -14.92209 c -1.16416,3.809964 -5.50336,6.032706 -11.64167,6.032706 -7.19658,0 -11.11245,-3.281104 -12.06489,-10.26604 l 38.41729,-0.211873 V 71.715 c 0,-17.250671 -10.37184,-28.151253 -26.9875,-28.151253 z m 0.10594,13.229167 c 6.56158,0 10.68927,3.598071 10.68927,9.20719 h -22.01365 c 1.27,-6.349944 4.86857,-9.20719 11.32438,-9.20719 z m -211.33181,1.69292 c 0.0297,-1.62e-4 0.0596,0 0.0894,0 7.72575,0 12.59407,5.397572 12.59407,13.229166 0,7.8316 -4.86832,13.229167 -12.59407,13.229167 -7.61992,0 -12.91187,-5.291734 -12.91187,-13.229167 0,-7.906421 5.25048,-13.188027 12.82247,-13.229166 z m -209.98925,17.03927 v 2.857706 c 0,6.032445 -4.33924,9.101254 -10.58333,9.101254 -4.97415,0 -7.3024,-1.798996 -7.3024,-5.60896 0,-3.386638 2.53967,-4.973968 9.63042,-5.60896 z m 309.3496,0 v 2.857706 c 0,6.032445 -4.3392,9.101254 -10.58334,9.101254 -4.97409,0 -7.30239,-1.798996 -7.30239,-5.60896 0,-3.386638 2.54018,-4.973968 9.63093,-5.60896 z M 279.22535,80.39354 c -5.36805,0.03372 -9.67331,4.359988 -9.67331,9.630937 0,5.185787 4.3394,9.524986 9.73688,9.524986 5.18576,0 9.73635,-4.339199 9.73635,-9.524986 0,-5.29162 -4.55059,-9.630937 -9.73635,-9.630937 -0.0211,0 -0.0425,-1.32e-4 -0.0636,0 z" />
		<rect
			style="fill:#000000;stroke-width:0.21817"
			id="rect753-2-2"
			width="3.1805072"
			height="20.289495"
			x="-114.44386"
			y="109.64365"
			transform="rotate(-90.000903)" />
		<rect
			style="fill:#000000;stroke-width:0.247696"
			id="rect753-2-6-8"
			width="3.1805072"
			height="26.152988"
			x="126.75063"
			y="88.3069"
			transform="matrix(0.99999999,-1.172676e-4,2.387075e-5,1,0,0)" />
		<ellipse
			style="fill:#000000;stroke-width:0.264583"
			id="path821-4-9-0-1"
			cx="339.57562"
			cy="110.3833"
			rx="7.1437497"
			ry="6.9783854" />
		<rect
			style="fill:#000000;stroke-width:0.294452"
			id="rect753-2-2-0"
			width="3.1805072"
			height="36.958202"
			x="-111.68018"
			y="341.12643"
			transform="matrix(-2.8708119e-5,-1,1,-8.6521792e-6,0,0)" />
		<rect
			style="fill:#000000;stroke-width:0.247696"
			id="rect753-2-6-8-9"
			width="3.1805072"
			height="26.152988"
			x="376.49124"
			y="85.571457"
			transform="matrix(0.99999999,-1.172676e-4,2.387075e-5,1,0,0)" />
		<rect
			style="fill:#000000;stroke-width:0.247696"
			id="rect753-2-6-8-5"
			width="3.1805072"
			height="26.152988"
			x="436.50128"
			y="89.470558"
			transform="matrix(0.99999999,-1.172676e-4,2.387075e-5,1,0,0)" />
		<rect
			style="fill:#000000;stroke-width:0.271417"
			id="rect753-2-2-5-0"
			width="3.1805072"
			height="31.401842"
			x="30.097157"
			y="-339.30869"
			transform="matrix(-1.3657409e-4,0.99999999,-1,-5.7016501e-5,0,0)" />
		<rect
			style="fill:#000000;stroke-width:0.247696"
			id="rect753-2-6-8-5-0"
			width="3.1805072"
			height="26.152988"
			x="-311.08643"
			y="-56.268963"
			transform="matrix(-1,1.3263543e-5,8.0133309e-5,-1,0,0)" />
		<ellipse
			style="fill:#000000;stroke-width:0.264583"
			id="path821-4-9-0-6"
			cx="417.71033"
			cy="113.64484"
			rx="7.1437497"
			ry="6.9783854" />
		<rect
			style="fill:#000000;stroke-width:0.21817"
			id="rect753-2-2-6"
			width="3.1805072"
			height="20.289495"
			x="-115.5806"
			y="419.39334"
			transform="rotate(-90.000903)" />
	</g>
</svg>
